<svg width="24" height="24" viewBox="0 0 24 24" fill="none" xmlns="http://www.w3.org/2000/svg">
<path d="M17 7.33334H18V8.33334H17V7.33334Z" fill="white"/>
<path d="M16 6.33334H17V7.33334H16V6.33334Z" fill="white"/>
<path d="M15 5.33334H16V6.33334H15V5.33334Z" fill="white"/>
<path d="M8 5.33334H9V6.33334H8V5.33334Z" fill="white"/>
<path d="M7 6.33334H8V7.33334H7V6.33334Z" fill="white"/>
<path d="M6 7.33334H7V8.33334H6V7.33334Z" fill="white"/>
<path d="M6 18.3333H7V14.3333H6V8.33334H5V14.3333V15.3333H6V18.3333Z" fill="white"/>
<path d="M10 14.3333V13.3333H7V14.3333H10Z" fill="white"/>
<path d="M10 18.3333H11V14.3333H10V18.3333Z" fill="white"/>
<path d="M10 19.3333V18.3333H7V19.3333H10Z" fill="white"/>
<path d="M13 18.3333H14V14.3333H13V18.3333Z" fill="white"/>
<path d="M14 13.3333V14.3333H17V13.3333H14Z" fill="white"/>
<path d="M14 18.3333V19.3333H17V18.3333H14Z" fill="white"/>
<path d="M15 5.33334V4.33334H9V5.33334H15Z" fill="white"/>
<path d="M17 18.3333H18V15.3333H19V8.33334H18V14.3333H17V18.3333Z" fill="white"/>
<path d="M7 18.3333V14.3333H10V18.3333H7Z" fill="white"/>
<path d="M17 18.3333H14V14.3333H17V18.3333Z" fill="white"/>
</svg>
