<svg width="24" height="24" viewBox="0 0 24 24" fill="none" xmlns="http://www.w3.org/2000/svg">
<path d="M16 9H15V8H13V9H11V10H10V18H9V19H6V17H8V16H9V8H11V7H13V6H15V5H17V16H16V17H13V15H15V14H16V9Z" fill="white"/>
<path d="M15.0003 4H17.0003V5H15.0003V4Z" fill="white"/>
<path d="M13.0003 6V5H15.0003V6H13.0003Z" fill="white"/>
<path d="M11.0003 7V6H13.0003V7H11.0003Z" fill="white"/>
<path d="M9.00032 8V7H11.0003V8H9.00032Z" fill="white"/>
<path d="M8.00032 16V8H9.00032V16H8.00032Z" fill="white"/>
<path d="M6.00032 17H8.00032V16H6.00032V17Z" fill="white"/>
<path d="M9.00032 19V20H6.00032V19.0112L5.00032 19.0114L5 17.0002L6.00032 17V19H9.00032Z" fill="white"/>
<path d="M10.0003 18V19H9.00032V18H10.0003Z" fill="white"/>
<path d="M11.0003 10V18H10.0003V10H11.0003Z" fill="white"/>
<path d="M13.0003 9V10H11.0003V9H13.0003Z" fill="white"/>
<path d="M15.0003 9H13.0003V8H15.0003V9Z" fill="white"/>
<path d="M15.0003 14V9H16.0003V14H15.0003Z" fill="white"/>
<path d="M13.0003 15V14H15.0003V15H13.0003Z" fill="white"/>
<path d="M13.0003 17H12.0003V15H13.0003V17Z" fill="white"/>
<path d="M16.0003 17V18H13.0003V17H16.0003Z" fill="white"/>
<path d="M17.0003 16V17H16.0003V16H17.0003Z" fill="white"/>
<path d="M17.0003 16H18.0003V5H17.0003V16Z" fill="white"/>
</svg>
