<svg width="24" height="24" viewBox="0 0 24 24" fill="none" xmlns="http://www.w3.org/2000/svg">
<path d="M17 9H18V8H17V9Z" fill="white"/>
<path d="M18 10H19V9H18V10Z" fill="white"/>
<path d="M18 15H19V14H18V15Z" fill="white"/>
<path d="M17 16H18V15H17V16Z" fill="white"/>
<path d="M15 11H16V10H15V11Z" fill="white"/>
<path d="M15 14H16V13H15V14Z" fill="white"/>
<path d="M20 10H19V14H20V10Z" fill="white"/>
<path d="M17 11H16V13H17V11Z" fill="white"/>
<path d="M10 17V18H12V17H10Z" fill="white"/>
<path d="M8 16V17H10V16H8Z" fill="white"/>
<path d="M6 15V16H8V15H6Z" fill="white"/>
<path d="M6 9H5V15H6V9Z" fill="white"/>
<path d="M8 9V8H6V9H8Z" fill="white"/>
<path d="M10 8V7H8V8H10Z" fill="white"/>
<path d="M12 7V6H10V7H12Z" fill="white"/>
<path d="M12 17H13V7H12V17Z" fill="white"/>
<path d="M6 15V9H8V8H10V7H12V17H10V16H8V15H6Z" fill="white"/>
</svg>
